<svg xmlns="http://www.w3.org/2000/svg" viewBox="0 -15 512 511">
   <defs>
        <linearGradient id="linear-gradient">
            <stop offset="0%" stop-color="#7257fb" />
            <stop offset="100%" stop-color="#bf7de7" />
        </linearGradient>
   </defs>
    <path fill="url(#linear-gradient)" stroke="url(#linear-gradient)" d="M190 50.59h186c5.523 0 10-4.48 10-10 0-5.524-4.477-10-10-10H190c-5.523 0-10 4.476-10 10 0 5.52 4.477 10 10 10zm0 0M129.559 44.41a10.055 10.055 0 0 0 2.16 3.25c.46.461.972.88 1.523 1.238.54.36 1.117.672 1.727.922.601.25 1.23.438 1.87.57.641.13 1.302.2 1.95.2a10.122 10.122 0 0 0 3.832-.77c.598-.25 1.18-.562 1.719-.922a9.478 9.478 0 0 0 1.52-1.238c.46-.46.882-.972 1.25-1.52.359-.542.671-1.12.921-1.73.25-.601.438-1.23.57-1.87.13-.642.188-1.302.188-1.95 0-.649-.059-1.309-.187-1.961a10.809 10.809 0 0 0-.57-1.867 9.991 9.991 0 0 0-2.172-3.242c-.462-.461-.97-.88-1.52-1.25-.54-.36-1.121-.672-1.719-.922-.61-.25-1.23-.438-1.871-.567a9.835 9.835 0 0 0-3.91 0c-.64.13-1.27.317-1.871.567-.61.25-1.188.562-1.727.922-.55.37-1.062.789-1.523 1.25-.457.46-.88.968-1.239 1.52-.359.538-.671 1.12-.921 1.722-.25.61-.438 1.238-.567 1.867a9.842 9.842 0 0 0-.191 1.96 10.038 10.038 0 0 0 .758 3.82zm0 0M43.238 108.898c.543.36 1.121.672 1.73.922.602.25 1.231.438 1.872.57.64.13 1.3.2 1.95.2.648 0 1.308-.07 1.96-.2.64-.132 1.258-.32 1.867-.57.602-.25 1.184-.562 1.723-.922a9.478 9.478 0 0 0 1.52-1.238 10.03 10.03 0 0 0 2.93-7.07c0-.649-.06-1.309-.188-1.961a10.809 10.809 0 0 0-.57-1.867 10.129 10.129 0 0 0-.923-1.723 9.342 9.342 0 0 0-1.25-1.52c-.46-.46-.968-.878-1.52-1.25-.538-.359-1.12-.671-1.718-.921-.61-.25-1.23-.438-1.871-.567a9.835 9.835 0 0 0-3.91 0c-.64.13-1.27.317-1.871.567-.61.25-1.188.562-1.727.922-.55.37-1.062.789-1.523 1.25-.457.46-.88.968-1.239 1.52-.359.538-.671 1.12-.921 1.722-.25.61-.438 1.238-.567 1.867a9.86 9.86 0 0 0-.203 1.96c0 2.63 1.07 5.212 2.934 7.071.457.461.965.88 1.515 1.238zm0 0M235.96 125.762a10.129 10.129 0 0 0-.92-1.723 9.342 9.342 0 0 0-1.25-1.52c-.462-.46-.97-.878-1.52-1.25-.54-.359-1.122-.671-1.72-.921-.6-.25-1.23-.438-1.87-.567a9.835 9.835 0 0 0-3.91 0c-.641.13-1.27.317-1.872.567-.597.25-1.18.562-1.726.922-.543.37-1.063.789-1.524 1.25-.46.46-.878.968-1.238 1.52-.36.538-.672 1.12-.922 1.722-.25.61-.437 1.238-.566 1.867a9.86 9.86 0 0 0-.203 1.96c0 .65.07 1.31.203 1.95a10.038 10.038 0 0 0 1.488 3.602c.36.547.778 1.058 1.238 1.52a10.315 10.315 0 0 0 3.25 2.16c.602.25 1.23.437 1.872.57.64.129 1.3.199 1.96.199.649 0 1.301-.07 1.95-.2.64-.132 1.27-.32 1.87-.57.598-.25 1.18-.562 1.72-.922a9.478 9.478 0 0 0 1.52-1.238c.472-.46.882-.972 1.25-1.52.358-.542.67-1.12.92-1.73.25-.601.438-1.23.571-1.87.13-.642.2-1.302.2-1.95 0-.649-.07-1.309-.2-1.961a10.809 10.809 0 0 0-.57-1.867zm0 0M256 139.59c2.629 0 5.21-1.07 7.07-2.93a10.08 10.08 0 0 0 2.93-7.07c0-.649-.07-1.309-.2-1.961a10.478 10.478 0 0 0-.57-1.867 9.86 9.86 0 0 0-.921-1.723 9.478 9.478 0 0 0-1.239-1.52c-2.32-2.332-5.78-3.39-9.02-2.738-.64.13-1.269.317-1.878.567-.602.25-1.184.562-1.723.922-.55.37-1.058.789-1.52 1.25-.46.46-.878.968-1.25 1.52-.359.538-.671 1.12-.921 1.722-.25.61-.438 1.238-.57 1.867a10.133 10.133 0 0 0-.188 1.96c0 .65.059 1.31.187 1.95.133.64.333 1.27.583 1.871a9.901 9.901 0 0 0 2.16 3.25c.46.461.968.88 1.52 1.238.538.36 1.12.672 1.722.922.61.25 1.238.438 1.879.57.64.13 1.3.2 1.949.2zm0 0M276.04 133.41c.25.61.562 1.188.92 1.73a9.568 9.568 0 0 0 2.77 2.758c.54.36 1.118.672 1.72.922.609.25 1.23.438 1.87.57.649.13 1.301.2 1.961.2a10.034 10.034 0 0 0 3.817-.77c.601-.25 1.183-.562 1.73-.922a9.835 9.835 0 0 0 1.52-1.238c.46-.46.882-.972 1.242-1.52.36-.542.668-1.12.918-1.73.25-.601.441-1.23.57-1.87.133-.642.192-1.302.192-1.95 0-.649-.063-1.309-.192-1.961a10.11 10.11 0 0 0-1.488-3.59 9.502 9.502 0 0 0-1.242-1.52 9.95 9.95 0 0 0-1.52-1.25c-.55-.359-1.129-.671-1.73-.921a9.911 9.911 0 0 0-1.868-.567 9.835 9.835 0 0 0-3.91 0c-.64.13-1.261.317-1.87.567-.602.25-1.18.562-1.72.922-.55.37-1.07.78-1.53 1.25-.462.46-.88.968-1.24 1.52-.358.538-.67 1.12-.92 1.722-.25.61-.438 1.238-.571 1.867-.13.652-.2 1.312-.2 1.96 0 .65.07 1.31.2 1.95.133.64.32 1.27.57 1.871zm0 0M370 380.66H260c-5.523 0-10 4.477-10 10 0 5.52 4.477 10 10 10h110c5.523 0 10-4.48 10-10 0-5.523-4.477-10-10-10zm0 0M370 420.66H260c-5.523 0-10 4.477-10 10 0 5.52 4.477 10 10 10h110c5.523 0 10-4.48 10-10 0-5.523-4.477-10-10-10zm0 0M175 380.66c-16.543 0-30 13.457-30 30s13.457 30 30 30 30-13.457 30-30-13.457-30-30-30zm0 40c-5.516 0-10-4.484-10-10s4.484-10 10-10 10 4.485 10 10-4.484 10-10 10zm0 0M130 240.66h40c5.523 0 10-4.48 10-10 0-5.523-4.477-10-10-10h-40c-5.523 0-10 4.477-10 10 0 5.52 4.477 10 10 10zm0 0M130 280.578h80c5.523 0 10-4.476 10-10 0-5.52-4.477-10-10-10h-80c-5.523 0-10 4.48-10 10 0 5.524 4.477 10 10 10zm0 0M200 310.66c0-5.523-4.477-10-10-10h-60c-5.523 0-10 4.477-10 10 0 5.52 4.477 10 10 10h60c5.523 0 10-4.476 10-10zm0 0"/>
    <path fill="url(#linear-gradient)" stroke="url(#linear-gradient)" d="M490 60.5h-64v-38c0-12.133-9.867-22-22-22H108c-12.133 0-22 9.867-22 22v38H22c-12.133 0-22 9.867-22 22v336.16c0 12.13 9.867 22 22 22h64v18c0 12.13 9.867 22 22 22h296c12.133 0 22-9.87 22-22v-18h64c12.133 0 22-9.87 22-22V82.5c0-12.133-9.867-22-22-22zm2 22v38h-66v-9.91h36c5.523 0 10-4.48 10-10 0-5.524-4.477-10-10-10h-36V80.5h64c1.086 0 2 .914 2 2zm-386-2h300v100.16H106zm300 130.637V326.59l-56.98-57.012zm-71.121 44.297l-54.746-54.774H388.28zm-13.965 14.32L266 326.078v-111.27zm14.14 14.148l56.813 56.84h-112.23zM108 20.5h296c1.086 0 2 .914 2 2v38H106v-38c0-1.086.914-2 2-2zm-86 60h64v40H20v-38c0-1.086.914-2 2-2zm0 340.16c-1.086 0-2-.918-2-2V140.5h66v280.16zm384 38c0 1.082-.914 2-2 2H108c-1.086 0-2-.918-2-2v-97.918h21.574c5.52 0 10-4.48 10-10 0-5.523-4.48-10-10-10H106V200.66h140v140.082h-38.426c-5.523 0-10 4.477-10 10 0 5.52 4.477 10 10 10H406zm84-38h-64v-69.91V140.5h66v278.16c0 1.082-.914 2-2 2zm0 0"/>
    <path fill="url(#linear-gradient)" stroke="url(#linear-gradient)" d="M171.059 341.34a9.922 9.922 0 0 0-7.637 0c-.61.25-1.192.558-1.73.922-.551.367-1.06.789-1.52 1.25a10.057 10.057 0 0 0-2.93 7.066c0 .652.067 1.313.2 1.953.117.64.32 1.27.57 1.867.25.61.547 1.192.918 1.73.36.552.78 1.06 1.242 1.52.457.461.969.883 1.52 1.243.538.359 1.117.668 1.73.918.598.25 1.226.441 1.867.57.64.129 1.3.2 1.95.2.652 0 1.312-.071 1.948-.2a9.96 9.96 0 0 0 1.872-.57 9.896 9.896 0 0 0 1.73-.918 9.502 9.502 0 0 0 1.52-1.243 9.896 9.896 0 0 0 2.16-3.25c.25-.597.449-1.226.582-1.867.129-.64.187-1.3.187-1.953a10.07 10.07 0 0 0-2.93-7.066 9.991 9.991 0 0 0-1.519-1.25 9.526 9.526 0 0 0-1.73-.922zm0 0"/>
</svg>
